<svg width="26" height="24" viewBox="0 0 26 24" fill="none" xmlns="http://www.w3.org/2000/svg">
<path d="M18.6283 0C23.0544 0 25.6667 2.64612 25.6667 7.17573H20.2367V7.22196C17.7167 7.22196 15.6738 9.29132 15.6738 11.844C15.6738 14.3967 17.7167 16.4661 20.2367 16.4661H25.6667V16.882C25.6667 21.3539 23.0544 24 18.6283 24H7.03837C2.6123 24 0 21.3539 0 16.882V7.11796C0 2.64612 2.6123 0 7.03837 0H18.6283ZM24.7084 9.16322C25.2377 9.16322 25.6667 9.59778 25.6667 10.1338V13.5079C25.6605 14.0414 25.2351 14.4723 24.7084 14.4786H20.3394C19.0636 14.496 17.948 13.6112 17.6587 12.3524C17.5138 11.5711 17.7172 10.7648 18.2144 10.1496C18.7117 9.53449 19.4519 9.17343 20.2367 9.16322H24.7084ZM20.8527 10.7232H20.4307C20.1715 10.7201 19.922 10.8222 19.7376 11.0067C19.5533 11.1912 19.4496 11.4428 19.4496 11.7053C19.4496 12.2561 19.887 12.7043 20.4307 12.7106H20.8527C21.3946 12.7106 21.8338 12.2657 21.8338 11.7169C21.8338 11.1681 21.3946 10.7232 20.8527 10.7232ZM13.3239 5.18825H6.08015C5.54276 5.18822 5.10536 5.62613 5.09911 6.17044C5.09911 6.72117 5.5365 7.1694 6.08015 7.17573H13.3239C13.8657 7.17573 14.3049 6.73082 14.3049 6.18199C14.3049 5.63317 13.8657 5.18825 13.3239 5.18825Z" fill="#CFCFCF"/>
</svg>
